<?xml version="1.0" encoding="utf-8"?>
<!-- Generator: Adobe Illustrator 23.0.1, SVG Export Plug-In . SVG Version: 6.00 Build 0)  -->
<svg version="1.1" id="Layer_1" xmlns="http://www.w3.org/2000/svg" xmlns:xlink="http://www.w3.org/1999/xlink" x="0px" y="0px"
	 viewBox="0 0 100 100" style="enable-background:new 0 0 100 100;" xml:space="preserve">
<style type="text/css">
	.st0{display:none;enable-background:new    ;}
	.st1{font-family:'HelveticaNeue-BoldOutline';}
	.st2{font-size:5px;}
</style>
<title>05</title>
<path d="M77.4,14.6L40.6,51.4c-8.4-6.1-20.1-4.2-26.2,4.2s-4.2,20.1,4.2,26.2s20.1,4.2,26.2-4.2c4.7-6.6,4.7-15.4,0-22L61,39.6
	l10.5,10.5l17.6-17.6L78.6,21.9l3.1-3.1L77.4,14.6z M38.7,75.6c-5,5-13.1,5-18.1,0s-5-13.1,0-18.1c5-5,13.1-5,18.1,0
	C43.7,62.6,43.7,70.7,38.7,75.6L38.7,75.6z M80.6,32.4l-9.1,9.1l-6.3-6.3l9.1-9.1L80.6,32.4z"/>
<text transform="matrix(1 0 0 1 0 102.5226)" class="st0 st1 st2">Created by Trendy</text>
<text transform="matrix(1 0 0 1 0 107.5226)" class="st0 st1 st2">from the Noun Project</text>
</svg>
