<?xml version="1.0" encoding="utf-8"?>
<!-- Generator: Adobe Illustrator 23.0.1, SVG Export Plug-In . SVG Version: 6.00 Build 0)  -->
<svg version="1.1" id="Layer_1" xmlns="http://www.w3.org/2000/svg" xmlns:xlink="http://www.w3.org/1999/xlink" x="0px" y="0px"
	 viewBox="0 0 100 100.1" style="enable-background:new 0 0 100 100.1;" xml:space="preserve">
<path d="M74.8,41.5V29.4c0-4.1-3.4-7.5-7.5-7.5H52.3l-8-7H13.1c-4.1,0-7.5,3.4-7.5,7.5v38.2c0,4.1,3.4,7.5,7.5,7.5H51
	c2.2,9.8,10.9,17.2,21.4,17.2c12.1,0,21.9-9.8,21.9-21.9C94.4,52,85.8,42.7,74.8,41.5z M50.5,63H13.1c-1.4,0-2.5-1.1-2.5-2.5V22.4
	c0-1.4,1.1-2.5,2.5-2.5h29.2l8,7h16.9c1.4,0,2.5,1.1,2.5,2.5v12.2C59,42.8,50.6,51.9,50.5,63z M72.4,80.2c-9.3,0-16.9-7.6-16.9-16.9
	s7.6-16.9,16.9-16.9S89.4,54,89.4,63.3S81.8,80.2,72.4,80.2z M72.3,51.2c-1.4,0-2.5,1.1-2.5,2.5V64c0,1.4,1.1,2.5,2.5,2.5
	s2.5-1.1,2.5-2.5V53.7C74.8,52.3,73.7,51.2,72.3,51.2z M72.3,69c-1.4,0-2.5,1.1-2.5,2.5v0.2c0,1.4,1.1,2.5,2.5,2.5s2.5-1.1,2.5-2.5
	v-0.2C74.8,70.1,73.7,69,72.3,69z"/>
</svg>
